<?xml version="1.0" encoding="UTF-8"?>
<svg id="Layer_1" data-name="Layer 1" xmlns="http://www.w3.org/2000/svg" viewBox="0 0 12 14">
  <defs>
    <style>
      .cls-1 {
        fill: #fff;
      }
    </style>
  </defs>
  <path class="cls-1" d="M1.33,14c-.37,0-.68-.13-.94-.39-.26-.26-.39-.57-.39-.94V4.67c0-.37.13-.68.39-.94.26-.26.57-.39.94-.39h1.33c0-.92.32-1.71.97-2.36.65-.65,1.44-.98,2.36-.98s1.71.32,2.36.98c.65.65.98,1.44.98,2.36h1.33c.37,0,.68.13.94.39.26.26.39.58.39.94v8c0,.37-.13.68-.39.94s-.57.39-.94.39H1.33ZM6,8.67c.92,0,1.71-.32,2.36-.97.65-.65.98-1.44.98-2.36h-1.33c0,.56-.19,1.03-.58,1.42-.39.39-.86.58-1.42.58s-1.03-.19-1.42-.58c-.39-.39-.58-.86-.58-1.42h-1.33c0,.92.32,1.71.97,2.36.65.65,1.44.97,2.36.97ZM4,3.33h4c0-.56-.19-1.03-.58-1.42-.39-.39-.86-.58-1.42-.58s-1.03.19-1.42.58c-.39.39-.58.86-.58,1.42Z"/>
</svg>