<?xml version="1.0" encoding="UTF-8" standalone="no"?>
<!DOCTYPE svg PUBLIC "-//W3C//DTD SVG 1.1//EN" "http://www.w3.org/Graphics/SVG/1.1/DTD/svg11.dtd">
<svg width="100%" height="100%" viewBox="0 0 38 38" version="1.1" xmlns="http://www.w3.org/2000/svg" xmlns:xlink="http://www.w3.org/1999/xlink" xml:space="preserve" xmlns:serif="http://www.serif.com/" style="fill-rule:evenodd;clip-rule:evenodd;stroke-linejoin:round;stroke-miterlimit:2;">
    <rect id="Artboard1" x="0" y="0" width="38" height="37.675" style="fill:none;"/>
    <clipPath id="_clip1">
        <rect id="Artboard11" serif:id="Artboard1" x="0" y="0" width="38" height="37.675"/>
    </clipPath>
    <g clip-path="url(#_clip1)">
        <g transform="matrix(2.52995,0,0,2.51499,-29.069,-29.2416)">
            <path d="M24.5,11.627C25.038,11.627 25.541,11.838 25.914,12.203C26.292,12.573 26.51,13.078 26.51,13.617L26.51,24.617C26.51,25.715 25.609,26.607 24.5,26.607C23.391,26.607 22.49,25.715 22.49,24.617L22.49,18.455L14.928,26.017C14.148,26.798 12.874,26.804 12.086,26.031C11.297,25.258 11.291,23.997 12.072,23.217L19.682,15.607L13.5,15.607C12.391,15.607 11.49,14.715 11.49,13.617C11.49,12.519 12.391,11.627 13.5,11.627L24.5,11.627Z" style="fill:white;"/>
        </g>
    </g>
</svg>
