<?xml version="1.0" encoding="UTF-8" standalone="no"?>
<!DOCTYPE svg PUBLIC "-//W3C//DTD SVG 1.1//EN" "http://www.w3.org/Graphics/SVG/1.1/DTD/svg11.dtd">
<svg width="100%" height="100%" viewBox="0 0 24 24" version="1.1" xmlns="http://www.w3.org/2000/svg" xmlns:xlink="http://www.w3.org/1999/xlink" xml:space="preserve" xmlns:serif="http://www.serif.com/" style="fill-rule:evenodd;clip-rule:evenodd;stroke-linejoin:round;stroke-miterlimit:2;">
    <g transform="matrix(1.2,0,0,1.20621,-2.4,-2.41242)">
        <path d="M12,2C6.477,2 2,6.477 2,12C2,17.013 5.693,21.153 10.505,21.876L10.505,14.65L8.031,14.65L8.031,12.021L10.505,12.021L10.505,10.272C10.505,7.376 11.916,6.105 14.323,6.105C15.476,6.105 16.085,6.19 16.374,6.229L16.374,8.523L14.732,8.523C13.71,8.523 13.353,9.492 13.353,10.584L13.353,12.021L16.348,12.021L15.942,14.65L13.354,14.65L13.354,21.897C18.235,21.236 22,17.062 22,12C22,6.477 17.523,2 12,2Z" style="fill-rule:nonzero;"/>
    </g>
</svg>
