<?xml version="1.0" encoding="UTF-8" standalone="no"?>
<!DOCTYPE svg PUBLIC "-//W3C//DTD SVG 1.1//EN" "http://www.w3.org/Graphics/SVG/1.1/DTD/svg11.dtd">
<svg width="100%" height="100%" viewBox="0 0 2332 482" version="1.1" xmlns="http://www.w3.org/2000/svg" xmlns:xlink="http://www.w3.org/1999/xlink" xml:space="preserve" xmlns:serif="http://www.serif.com/" style="fill-rule:evenodd;clip-rule:evenodd;stroke-linejoin:round;stroke-miterlimit:2;">
    <g id="Artboard1" transform="matrix(1,0,0,0.960508,-73.8734,0)">
        <rect x="73.873" y="0" width="2331.29" height="501.69" style="fill:none;"/>
        <clipPath id="_clip1">
            <rect x="73.873" y="0" width="2331.29" height="501.69"/>
        </clipPath>
        <g clip-path="url(#_clip1)">
            <g transform="matrix(2.06171,0,0,2.14648,70.3682,-0.825505)">
                <path d="M213.131,67.075C205.67,28.824 180.046,1.087 133.819,0.666L131.8,0.666C79.052,0.994 39.913,27.462 19.167,67.075C7.706,89.442 1.859,114.265 2.133,139.396C2.133,190.222 30.291,222.226 66.38,231.191C73.38,232.926 80.568,233.793 87.78,233.77C95.677,233.859 103.557,232.993 111.246,231.191C125.464,227.982 138.187,220.057 147.335,208.71L147.335,228.89C147.31,229.188 147.31,229.487 147.335,229.785C147.697,230.589 148.474,231.131 149.354,231.192L180.563,231.192C180.941,231.15 181.307,231.038 181.643,230.861C182.164,230.531 182.536,230.009 182.676,229.408L204.216,119.213C204.239,119.013 204.239,118.81 204.216,118.604C204.216,118.603 204.216,118.603 204.216,118.602C204.216,117.316 203.157,116.257 201.871,116.257C201.871,116.257 201.87,116.257 201.87,116.257L123.543,116.257C122.456,116.221 121.479,116.945 121.196,117.995L115.284,147.84L115.284,148.266C115.233,148.577 115.233,148.893 115.284,149.204C115.65,150.067 116.506,150.625 117.443,150.61L156.958,150.61C148.463,174.076 128.8,194.587 97.355,194.587C65.913,194.587 46.107,171.917 46.107,133.201C45.688,109.276 53.513,85.92 68.26,67.075C81.959,49.796 102.853,39.721 124.903,39.759C146.82,39.759 159.586,49.756 168.127,67.075C170.333,71.623 172.2,76.329 173.711,81.153C174.07,82.027 174.924,82.602 175.869,82.606L176.527,82.606L211.96,73.22C212.197,73.176 212.421,73.081 212.617,72.94C213.319,72.512 213.748,71.745 213.744,70.923L213.744,70.549C213.744,69.42 213.321,68.247 213.086,67.12M299.907,3.013C299.907,3.013 299.907,3.012 299.907,3.012C299.907,1.725 298.848,0.666 297.561,0.665L261.612,0.665C260.473,0.676 259.498,1.511 259.313,2.635L246.829,67.074L215.621,228.324L215.621,228.842C215.55,229.135 215.55,229.442 215.621,229.737C215.981,230.607 216.831,231.185 217.78,231.19L253.681,231.19C254.756,231.22 255.716,230.494 255.981,229.452L287.377,67.075L299.719,3.388L299.719,3.013M412.165,67.075C405.184,65.318 398.01,64.449 390.812,64.488C382.201,64.386 373.605,65.253 365.188,67.075C349.445,70.847 335.08,78.981 323.748,90.541C304.224,109.312 295.59,133.529 295.59,164.455C295.59,196.557 314.126,223.022 345.852,231.191C352.848,232.948 360.039,233.814 367.252,233.77C376.036,233.933 384.808,233.067 393.391,231.191C409.121,227.422 423.471,219.286 434.783,207.725C454.308,188.953 462.941,164.787 462.941,133.855C462.941,101.703 444.168,75.191 412.679,67.075M407.189,181.678C398.793,193.137 385.251,199.732 371.053,199.278C351.857,199.278 339.14,183.649 339.14,158.258C339.14,140.66 343.035,127.003 351.199,116.586C359.646,105.214 373.18,98.711 387.337,99.22C406.531,99.22 419.25,114.848 419.25,140.238C419.25,157.839 415.307,171.495 407.188,181.913M597.493,90.675C592.006,79.98 579.613,71.25 565.253,67.21C559.398,65.502 553.329,64.634 547.23,64.63C540.201,64.574 533.196,65.441 526.393,67.21C504.257,72.023 488.84,92.123 489.928,114.755C489.928,136.577 504.288,149.294 523.484,158.395C542.678,167.502 551.642,173.043 551.642,182.475C551.642,194.207 541.834,199.415 530.805,199.415C515.272,199.415 504.194,190.027 499.55,173.841C499.202,172.896 498.304,172.259 497.297,172.245C497.002,172.199 496.702,172.199 496.407,172.245L466.179,184.822C465.304,185.18 464.73,186.035 464.729,186.98L464.729,187.35C469.823,208.398 485.873,225.149 506.684,231.138C513.025,232.896 519.578,233.766 526.158,233.722C533.915,233.783 541.651,232.916 549.202,231.138C574.076,224.992 590.636,207.672 590.636,176.746C590.636,153.986 573.698,142.914 556.803,135.076C545.728,129.861 528.645,124.985 528.645,113.58C528.556,105.542 534.996,98.961 543.03,98.869C543.555,98.859 544.082,98.886 544.604,98.932C554.085,98.938 562.991,103.568 568.442,111.325C568.889,111.91 569.583,112.257 570.319,112.261C570.75,112.251 571.166,112.138 571.543,111.938L596.836,93.728C597.728,93.069 597.992,91.835 597.449,90.868M699.381,67.075C693.524,65.369 687.456,64.498 681.356,64.488C674.313,64.435 667.294,65.305 660.477,67.075C638.355,71.906 622.961,92 624.059,114.61C624.059,136.435 638.139,149.156 657.61,158.258C676.149,167.036 685.77,172.902 685.77,182.333C685.77,194.065 676.013,199.277 664.93,199.277C649.4,199.277 638.274,189.89 633.627,173.602C633.296,172.702 632.434,172.1 631.475,172.098C631.162,172.035 630.841,172.035 630.528,172.098L600.356,184.634C599.492,184.997 598.933,185.855 598.95,186.792C598.925,186.947 598.925,187.104 598.95,187.259C604.067,208.26 620.092,224.967 640.861,230.955C647.22,232.704 653.79,233.572 660.385,233.534C668.125,233.6 675.844,232.734 683.377,230.955C708.249,224.805 724.863,207.489 724.863,176.563C724.863,153.798 707.92,142.721 690.977,134.883C679.9,129.678 662.822,124.797 662.822,113.387C662.73,105.358 669.176,98.768 677.202,98.681C677.728,98.674 678.254,98.698 678.778,98.751C688.233,98.755 697.117,103.362 702.567,111.088C703.006,111.717 703.73,112.088 704.497,112.076C704.922,112.059 705.339,111.947 705.715,111.748L731.294,93.538C731.797,93.063 732.085,92.402 732.092,91.71C732.092,91.353 732.01,90.995 731.855,90.673C726.368,79.932 713.979,71.197 699.614,67.208M804.596,67.075L768.834,67.075C767.8,67.091 766.888,67.774 766.581,68.761L735.611,228.326C735.582,228.497 735.582,228.673 735.611,228.844C735.562,229.14 735.562,229.443 735.611,229.739C735.982,230.603 736.827,231.173 737.767,231.192L773.529,231.192C773.956,231.178 774.373,231.065 774.748,230.861C775.269,230.548 775.643,230.041 775.783,229.454L806.85,69.604C806.824,68.327 805.781,67.283 804.504,67.256M931.26,67.075C924.474,65.305 917.485,64.435 910.473,64.488C902.579,64.475 894.709,65.342 887.008,67.075C843.258,77.065 812.458,116.296 813.135,161.169C813.135,198.715 833.231,223.495 862.653,231.19C869.441,232.948 876.428,233.815 883.44,233.769C891.635,233.847 899.801,232.981 907.794,231.19C930.655,225.885 947.308,212.418 962.8,189.936C963.447,188.841 963.089,187.408 962.002,186.747L933.847,172.149C933.555,172 933.232,171.92 932.904,171.915C932.209,171.934 931.557,172.26 931.125,172.805C919.347,189.75 905.875,199.278 887.245,199.278C865.753,199.278 854.017,184.306 854.017,167.361L854.017,162.156L970.125,162.156C970.551,162.14 970.968,162.027 971.344,161.825C971.829,161.521 972.193,161.057 972.373,160.514C975.057,150.645 976.43,140.466 976.459,130.239C976.459,99.926 960.967,74.957 931.453,67.075M861.617,130.238C868.498,111.95 885.73,99.613 905.265,98.985C925.771,98.985 935.204,109.734 936.52,130.238L861.617,130.238ZM1107.68,103.913C1108.02,104.106 1108.4,104.203 1108.8,104.198C1109.23,104.208 1109.65,104.087 1110.02,103.866C1110.44,103.595 1110.77,103.202 1110.96,102.74L1122.93,71.062C1122.98,70.751 1122.98,70.433 1122.93,70.122C1122.91,69.182 1122.34,68.337 1121.48,67.963L1119.27,67.165C1113.86,65.255 1108.15,64.38 1102.42,64.585C1096.47,64.559 1090.55,65.429 1084.87,67.165C1071.32,71.63 1059.49,80.172 1050.98,91.616L1055.25,70.076C1055.32,69.86 1055.35,69.636 1055.35,69.41C1055.35,68.177 1054.34,67.163 1053.1,67.163C1053.07,67.163 1053.04,67.163 1053,67.165L1017.1,67.165C1015.97,67.17 1015,67.984 1014.8,69.092L983.779,228.655C983.756,228.78 983.756,228.907 983.779,229.032C983.707,229.324 983.707,229.628 983.779,229.92C984.136,230.796 984.99,231.373 985.936,231.378L1022.26,231.378C1022.69,231.363 1023.11,231.25 1023.48,231.049C1024,230.718 1024.38,230.194 1024.52,229.591L1035.59,173.276C1045.35,121.652 1073.13,101.003 1093.54,101.003C1098.41,100.907 1103.24,101.97 1107.62,104.103M793.896,3.199C781.122,3.199 770.764,13.558 770.764,26.34C770.764,39.117 781.121,49.475 793.896,49.475C806.675,49.475 817.032,39.118 817.032,26.34C817.299,13.819 807.362,3.46 794.844,3.199C794.528,3.194 794.212,3.194 793.896,3.199M1109.79,188.104C1096.96,188.16 1086.6,198.604 1086.65,211.432C1086.69,219.503 1090.92,226.999 1097.82,231.191C1105.22,235.378 1114.3,235.378 1121.7,231.191C1132.67,224.526 1136.16,210.235 1129.49,199.274C1125.31,192.394 1117.84,188.16 1109.79,188.104" style="fill:white;fill-rule:nonzero;"/>
            </g>
        </g>
    </g>
</svg>
