<?xml version="1.0" encoding="UTF-8"?>
<svg id="Layer_1" data-name="Layer 1" xmlns="http://www.w3.org/2000/svg" viewBox="0 0 605.72 605.72">
  <defs>
    <style>
      .cls-1 {
        fill: #fff;
        fill-rule: evenodd;
        stroke: #231f20;
        stroke-miterlimit: 10;
        stroke-width: 10.44px;
      }
    </style>
  </defs>
  <path class="cls-1" d="M34.99,432.66c-19.08-39.23-29.76-83.28-29.76-129.8s10.69-90.57,29.76-129.8c29.2-60.06,78.01-108.88,138.07-138.07,39.23-19.08,83.28-29.76,129.8-29.76s90.57,10.69,129.8,29.76c60.06,29.2,108.88,78.01,138.07,138.07,19.08,39.23,29.76,83.28,29.76,129.8s-10.69,90.57-29.76,129.8c-29.2,60.06-78.01,108.88-138.07,138.07-39.23,19.08-83.28,29.76-129.8,29.76s-90.57-10.69-129.8-29.76c-60.06-29.2-108.88-78.01-138.07-138.07ZM302.86,154.04c-82.18,0-148.82,66.64-148.82,148.82s66.64,148.82,148.82,148.82,148.82-66.64,148.82-148.82-66.64-148.82-148.82-148.82ZM302.86,213.57c48.99,0,89.29,40.3,89.29,89.29s-40.3,89.29-89.29,89.29-89.29-40.3-89.29-89.29,40.3-89.29,89.29-89.29ZM481.44,94.51c-16.43,0-29.76,13.33-29.76,29.76s13.33,29.76,29.76,29.76,29.76-13.33,29.76-29.76-13.33-29.76-29.76-29.76Z"/>
</svg>