<?xml version="1.0" encoding="UTF-8"?>
<svg id="Layer_1" data-name="Layer 1" xmlns="http://www.w3.org/2000/svg" viewBox="0 0 595.28 595.28">
  <defs>
    <style>
      .cls-1 {
        fill-rule: evenodd;
      }
    </style>
  </defs>
  <path class="cls-1" d="M29.76,427.44C10.69,388.21,0,344.16,0,297.64s10.69-90.57,29.76-129.8C58.96,107.77,107.77,58.96,167.84,29.76,207.07,10.69,251.12,0,297.64,0s90.57,10.69,129.8,29.76c60.06,29.2,108.88,78.01,138.07,138.07,19.08,39.23,29.76,83.28,29.76,129.8s-10.69,90.57-29.76,129.8c-29.2,60.06-78.01,108.88-138.07,138.07-39.23,19.08-83.28,29.76-129.8,29.76s-90.57-10.69-129.8-29.76c-60.06-29.2-108.88-78.01-138.07-138.07ZM297.64,148.82c-82.18,0-148.82,66.64-148.82,148.82s66.64,148.82,148.82,148.82,148.82-66.64,148.82-148.82-66.64-148.82-148.82-148.82ZM297.64,208.35c48.99,0,89.29,40.3,89.29,89.29s-40.3,89.29-89.29,89.29-89.29-40.3-89.29-89.29,40.3-89.29,89.29-89.29ZM476.22,89.29c-16.43,0-29.76,13.33-29.76,29.76s13.33,29.76,29.76,29.76,29.76-13.33,29.76-29.76-13.33-29.76-29.76-29.76Z"/>
</svg>