<?xml version="1.0" encoding="UTF-8"?>
<svg id="Layer_1" data-name="Layer 1" xmlns="http://www.w3.org/2000/svg" viewBox="0 0 605.72 605.72">
  <defs>
    <style>
      .cls-1 {
        fill: none;
        stroke: #231f20;
        stroke-width: 10.44px;
      }

      .cls-1, .cls-2 {
        stroke-miterlimit: 10;
      }

      .cls-2 {
        fill: #231f20;
        stroke: #000;
      }
    </style>
  </defs>
  <path d="M214.78,587.24c5.69,1.76,11.44,3.35,17.27,4.78-5.83-1.41-11.6-2.99-17.29-4.74.01-.01.02-.03.02-.04Z"/>
  <path class="cls-2" d="M16,382.49c.75,2.72,1.54,5.41,2.37,8.1-.83-2.68-1.62-5.38-2.37-8.1Z"/>
  <path class="cls-2" d="M19.21,393.27c1.42,4.45,2.94,8.86,4.56,13.22-1.63-4.36-3.15-8.76-4.56-13.22Z"/>
  <path class="cls-2" d="M370.08,592.87c2.4-.56,4.78-1.14,7.16-1.75-2.37.61-4.76,1.2-7.16,1.75Z"/>
  <path class="cls-2" d="M377.24,14.59c-2.37-.61-4.76-1.19-7.16-1.75,2.4.55,4.79,1.14,7.16,1.75Z"/>
  <path class="cls-2" d="M384.34,589.2c2.35-.67,4.69-1.37,7.02-2.09-2.33.73-4.67,1.42-7.02,2.09Z"/>
  <path class="cls-2" d="M405.2,582.43c4.55-1.67,9.05-3.45,13.5-5.33-4.44,1.89-8.95,3.66-13.5,5.33Z"/>
  <path class="cls-2" d="M415.37,27.22c-3.36-1.37-6.75-2.69-10.17-3.94,3.42,1.25,6.81,2.56,10.17,3.94Z"/>
  <path class="cls-2" d="M422.04,575.67c5.52-2.43,10.96-5.01,16.31-7.74-5.34,2.74-10.78,5.32-16.31,7.74Z"/>
  <path class="cls-2" d="M431.9,34.57c-3.26-1.56-6.54-3.07-9.86-4.53,3.32,1.45,6.6,2.96,9.86,4.53Z"/>
  <path class="cls-2" d="M438.36,567.93c3.2-1.65,6.37-3.35,9.51-5.1-3.13,1.76-6.31,3.46-9.51,5.1Z"/>
  <path class="cls-2" d="M447.88,42.88c-3.14-1.75-6.31-3.45-9.52-5.1,3.21,1.64,6.38,3.34,9.52,5.1Z"/>
  <path class="cls-2" d="M338.51,472.63c-30.15,0-58.51-15.69-68.21-34.17,0,0-14.95,56.82-18.55,70.78-6.72,25.81-24.83,58.23-36.97,78-88.3-27.31-159.03-94.62-191.01-180.75,29.51,79.35,91.91,142.7,170.63,173.53-2.59-23.55-4.97-59.68,1.04-85.37,5.42-23.21,34.88-147.95,34.88-147.95,0,0-8.9-17.83-8.9-44.17,0-41.4,23.99-72.27,53.85-72.27,25.39,0,37.65,19.08,37.65,41.91,0,25.54-16.25,63.72-24.65,99.08-7.02,29.65,14.86,53.79,44.08,53.79,52.89,0,93.55-55.78,93.55-136.29,0-71.26-51.19-121.08-124.32-121.08-84.68,0-134.39,63.51-134.39,129.17,0,25.57,9.86,53.01,22.15,67.92,2.44,2.95,2.77,5.54,2.05,8.55-2.26,9.4-7.26,29.61-8.24,33.75-1.28,5.44-4.32,6.61-9.94,3.96-37.18-17.33-60.42-71.67-60.42-115.31,0-93.87,68.21-180.13,196.68-180.13,103.25,0,183.49,73.58,183.49,171.92s-64.68,185.13-154.45,185.13Z"/>
  <path class="cls-2" d="M457.2,48.31c-3.07-1.86-6.18-3.67-9.32-5.43,3.14,1.75,6.25,3.56,9.32,5.43Z"/>
  <path class="cls-2" d="M480.94,64.35c-5.73-4.28-11.62-8.36-17.66-12.24,6.04,3.87,11.93,7.95,17.66,12.24Z"/>
  <path class="cls-2" d="M513.32,92.4c-10.1-10.1-20.92-19.48-32.38-28.05,11.47,8.57,22.29,17.95,32.38,28.05Z"/>
  <path class="cls-2" d="M523.17,502.98c-12.8,14.1-26.95,26.96-42.23,38.38,15.27-11.44,29.41-24.29,42.23-38.38Z"/>
  <path class="cls-2" d="M523.17,502.97c7.2-7.92,13.98-16.24,20.32-24.91-6.32,8.67-13.1,16.99-20.32,24.91Z"/>
  <path class="cls-2" d="M553.61,142.43c-1.3-2.01-2.61-4-3.95-5.98,1.35,1.98,2.66,3.97,3.95,5.98Z"/>
  <path class="cls-2" d="M555.52,460.24c1.9-3.04,3.74-6.12,5.54-9.23-1.79,3.11-3.63,6.19-5.54,9.23Z"/>
  <path class="cls-2" d="M562.84,157.83c-1.18-2.09-2.37-4.16-3.59-6.22,1.23,2.06,2.42,4.13,3.59,6.22Z"/>
  <path class="cls-2" d="M564.57,444.72c1.72-3.16,3.38-6.36,4.99-9.58-1.6,3.23-3.26,6.42-4.99,9.58Z"/>
  <path class="cls-2" d="M569.56,435.13c1.07-2.15,2.11-4.32,3.13-6.5-1.01,2.18-2.06,4.35-3.13,6.5Z"/>
  <path class="cls-2" d="M577.11,187c-.94-2.22-1.91-4.43-2.91-6.62,1,2.19,1.96,4.4,2.91,6.62Z"/>
  <path class="cls-2" d="M577.11,418.7c1.88-4.45,3.65-8.95,5.33-13.5-1.67,4.55-3.45,9.06-5.33,13.5Z"/>
  <circle class="cls-1" cx="302.86" cy="302.86" r="297.64"/>
</svg>