<svg width="57" height="57" viewBox="0 0 57 57" fill="none" xmlns="http://www.w3.org/2000/svg">
<rect x="0.5" y="0.5" width="56" height="56" rx="28" fill="white"/>
<path d="M26 19C27.9462 19 29.6115 19.6799 30.9658 21.0342L31.2119 21.292C32.4024 22.598 33 24.1755 33 26C33 26.6889 32.9041 27.3485 32.71 27.9766L32.6201 28.2441C32.4233 28.7924 32.1691 29.2947 31.8574 29.75L38.207 36.0996L36.0996 38.207L29.75 31.8574C29.367 32.1196 28.951 32.3417 28.502 32.5225L28.2441 32.6201C27.5367 32.8741 26.7873 33 26 33C24.1755 33 22.598 32.4024 21.292 31.2119L21.0342 30.9658C19.6799 29.6115 19 27.9462 19 26C19 24.0538 19.6799 22.3885 21.0342 21.0342L21.292 20.7881C22.598 19.5976 24.1755 19 26 19ZM26 22C24.8811 22 23.9462 22.3858 23.166 23.166C22.3858 23.9462 22 24.8811 22 26C22 27.1189 22.3858 28.0538 23.166 28.834C23.9462 29.6142 24.8811 30 26 30C27.1189 30 28.0538 29.6142 28.834 28.834C29.6142 28.0538 30 27.1189 30 26C30 24.8811 29.6142 23.9462 28.834 23.166C28.0538 22.3858 27.1189 22 26 22Z" fill="#211D1E" stroke="#211D1E"/>
</svg>
