<?xml version="1.0" encoding="UTF-8" standalone="no"?>
<!DOCTYPE svg PUBLIC "-//W3C//DTD SVG 1.1//EN" "http://www.w3.org/Graphics/SVG/1.1/DTD/svg11.dtd">
<svg width="100%" height="100%" viewBox="0 0 57 57" version="1.1" xmlns="http://www.w3.org/2000/svg" xmlns:xlink="http://www.w3.org/1999/xlink" xml:space="preserve" xmlns:serif="http://www.serif.com/" style="fill-rule:evenodd;clip-rule:evenodd;stroke-linejoin:round;stroke-miterlimit:2;">
    <path d="M56.5,28.5C56.5,43.954 43.954,56.5 28.5,56.5C13.046,56.5 0.5,43.954 0.5,28.5C0.5,13.046 13.046,0.5 28.5,0.5C43.954,0.5 56.5,13.046 56.5,28.5Z" style="fill:none;stroke:white;stroke-width:1px;"/>
    <path d="M26,19C27.946,19 29.612,19.68 30.966,21.034L31.212,21.292C32.402,22.598 33,24.176 33,26C33,26.689 32.904,27.349 32.71,27.977L32.62,28.244C32.423,28.792 32.169,29.295 31.857,29.75L38.207,36.1L36.1,38.207L29.75,31.857C29.367,32.12 28.951,32.342 28.502,32.523L28.244,32.62C27.537,32.874 26.787,33 26,33C24.176,33 22.598,32.402 21.292,31.212L21.034,30.966C19.68,29.612 19,27.946 19,26C19,24.054 19.68,22.389 21.034,21.034L21.292,20.788C22.598,19.598 24.176,19 26,19ZM26,22C24.881,22 23.946,22.386 23.166,23.166C22.386,23.946 22,24.881 22,26C22,27.119 22.386,28.054 23.166,28.834C23.946,29.614 24.881,30 26,30C27.119,30 28.054,29.614 28.834,28.834C29.614,28.054 30,27.119 30,26C30,24.881 29.614,23.946 28.834,23.166C28.054,22.386 27.119,22 26,22Z" style="fill:white;fill-rule:nonzero;stroke:white;stroke-width:1px;stroke-linejoin:miter;stroke-miterlimit:4;"/>
</svg>
