<?xml version="1.0" encoding="UTF-8"?>
<svg id="Layer_1" data-name="Layer 1" xmlns="http://www.w3.org/2000/svg" viewBox="0 0 595.28 595.27">
  <path d="M575.51,190.8c-30.26-78.55-92.88-141.08-171.5-171.21-19.7-7.55-40.41-13.07-61.87-16.29-14.53-2.17-29.38-3.3-44.5-3.3-13.66,0-27.11.92-40.3,2.71-22.94,3.11-45.05,8.84-66.02,16.88C112.44,49.81,49.66,112.64,19.51,191.56,7.08,224.07.19,259.31,0,296.12v3.06c.19,36.81,7.08,72.04,19.51,104.55,30.12,78.83,92.8,141.61,171.55,171.86,19.77,7.6,40.56,13.14,62.09,16.38,14.52,2.17,29.37,3.3,44.49,3.3,13.66,0,27.12-.92,40.3-2.7,23.04-3.12,45.24-8.89,66.3-16.98,78.52-30.16,141.05-92.65,171.27-171.14,12.6-32.71,19.58-68.19,19.77-105.27v-3.06c-.18-37.1-7.17-72.6-19.77-105.32ZM491.83,259.02c-3.28.31-6.59.51-9.93.51-37.78,0-70.99-19.41-90.32-48.8v166.22c0,67.85-55.02,122.85-122.86,122.85-67.83-.03-122.85-55.05-122.85-122.88,0-57.29,39.21-105.4,92.24-119,9.78-2.51,20.04-3.85,30.61-3.85,2.58,0,5.08.23,7.59.38v60.55c-2.53-.3-4.98-.76-7.59-.76-11.12,0-21.56,2.89-30.61,7.98-19.15,10.73-32.09,31.22-32.09,54.73,0,34.62,28.06,62.7,62.7,62.7s65.23-27.3,65.23-61.92c0-.36.04-19.12.1-46.82.04-18.17.09-40.19.13-63.38.18-79.21.38-172.1.38-172.1h57.85c5.43,51.74,47.21,92.58,99.42,96.32v67.27Z"/>
</svg>